<?xml version="1.0" encoding="utf-8"?>
<!-- Generator: Adobe Illustrator 18.1.0, SVG Export Plug-In . SVG Version: 6.00 Build 0)  -->
<svg version="1.1" id="Layer_1" xmlns="http://www.w3.org/2000/svg" xmlns:xlink="http://www.w3.org/1999/xlink" x="0px" y="0px"
	 viewBox="0 0 15.4 17.4" enable-background="new 0 0 15.4 17.4" xml:space="preserve">
<g>
	<path fill="#F16462" d="M12.6,2.4H3.1c-0.2,0-0.4-0.2-0.4-0.4c0-0.2,0.2-0.4,0.4-0.4h9.5c0.2,0,0.4,0.2,0.4,0.4
		C13,2.2,12.8,2.4,12.6,2.4z"/>
	<path fill="#F16462" d="M13.9,4.2h-12C1.6,4.2,1.4,4,1.4,3.7s0.2-0.4,0.4-0.4h12c0.2,0,0.4,0.2,0.4,0.4S14.1,4.2,13.9,4.2z"/>
	<path fill="#F16462" d="M13.3,6h-12C1.1,6,0.9,5.8,0.9,5.5c0-0.2,0.2-0.4,0.4-0.4h12c0.2,0,0.4,0.2,0.4,0.4C13.8,5.8,13.6,6,13.3,6
		z"/>
	<path fill="#F16462" d="M12.1,7.8H0.8c-0.2,0-0.4-0.2-0.4-0.4c0-0.2,0.2-0.4,0.4-0.4h11.3c0.2,0,0.4,0.2,0.4,0.4
		C12.5,7.6,12.3,7.8,12.1,7.8z"/>
	<path fill="#F16462" d="M11.2,9.5H1.3c-0.2,0-0.4-0.2-0.4-0.4c0-0.2,0.2-0.4,0.4-0.4h9.8c0.2,0,0.4,0.2,0.4,0.4
		C11.6,9.3,11.4,9.5,11.2,9.5z"/>
	<path fill="#F16462" d="M11.2,11.3h-8c-0.2,0-0.4-0.2-0.4-0.4c0-0.2,0.2-0.4,0.4-0.4h8c0.2,0,0.4,0.2,0.4,0.4
		C11.6,11.1,11.4,11.3,11.2,11.3z"/>
	<path fill="#F16462" d="M12.1,13.1H5.6c-0.2,0-0.4-0.2-0.4-0.4c0-0.2,0.2-0.4,0.4-0.4h6.4c0.2,0,0.4,0.2,0.4,0.4
		C12.5,12.9,12.3,13.1,12.1,13.1z"/>
	<path fill="#F16462" d="M13.5,14.9H8.8c-0.2,0-0.4-0.2-0.4-0.4c0-0.2,0.2-0.4,0.4-0.4h4.6c0.2,0,0.4,0.2,0.4,0.4
		C13.9,14.7,13.7,14.9,13.5,14.9z"/>
	<path fill="#F16462" d="M14,16.7h-2c-0.2,0-0.4-0.2-0.4-0.4c0-0.2,0.2-0.4,0.4-0.4h2c0.2,0,0.4,0.2,0.4,0.4
		C14.5,16.5,14.3,16.7,14,16.7z"/>
</g>
</svg>
