<?xml version="1.0" encoding="utf-8"?>
<!-- Generator: Adobe Illustrator 18.1.0, SVG Export Plug-In . SVG Version: 6.00 Build 0)  -->
<svg version="1.1" id="Layer_1" xmlns="http://www.w3.org/2000/svg" xmlns:xlink="http://www.w3.org/1999/xlink" x="0px" y="0px"
	 viewBox="0 0 13 22" enable-background="new 0 0 13 22" xml:space="preserve">
<path fill="#F16462" d="M1.7,21.3c-0.2,0-0.5-0.1-0.7-0.2c-0.5-0.4-0.6-1.1-0.2-1.5L8.7,9.3h-7c-0.4,0-0.8-0.2-1-0.6
	C0.5,8.3,0.6,7.9,0.8,7.5l4.4-5.5c0.4-0.5,1.1-0.5,1.5-0.2C7.2,2.3,7.3,3,6.9,3.4L4,7.1h6.9c0.4,0,0.8,0.2,1,0.6
	C12,8.1,12,8.6,11.7,8.9l-9.2,12C2.3,21.2,2,21.3,1.7,21.3z"/>
</svg>
