<?xml version="1.0" encoding="utf-8"?>
<!-- Generator: Adobe Illustrator 18.1.0, SVG Export Plug-In . SVG Version: 6.00 Build 0)  -->
<svg version="1.1" id="Layer_1" xmlns="http://www.w3.org/2000/svg" xmlns:xlink="http://www.w3.org/1999/xlink" x="0px" y="0px"
	 viewBox="0 0 74.1 47" enable-background="new 0 0 74.1 47" xml:space="preserve">
<path fill="#F16462" d="M38.9,45.9c-0.1,0-0.2,0-0.2,0c-0.7-0.1-1.3-0.7-1.3-1.5V10.6l-9.1,23.6c-0.3,0.7-1,1.1-1.7,0.9
	c-0.7-0.1-1.2-0.7-1.2-1.5V19.2l-2.2,4.6c-0.2,0.5-0.8,0.8-1.3,0.8H2.7c-0.8,0-1.5-0.7-1.5-1.5c0-0.8,0.7-1.5,1.5-1.5h18.2l4.7-9.6
	c0.3-0.6,1-1,1.7-0.8c0.7,0.2,1.2,0.8,1.2,1.5v12.9L37.5,2c0.3-0.7,1-1.1,1.7-0.9c0.7,0.1,1.2,0.7,1.2,1.5v32.2l9-28.4
	c0.2-0.7,0.9-1.1,1.7-1c0.7,0.1,1.3,0.7,1.3,1.5v26.5L61.4,15c0.3-0.6,1-0.9,1.7-0.8c0.7,0.2,1.2,0.8,1.2,1.5v6.6h7.2
	c0.8,0,1.5,0.7,1.5,1.5c0,0.8-0.7,1.5-1.5,1.5h-8.7c-0.8,0-1.5-0.7-1.5-1.5V22l-9.1,18.2c-0.3,0.6-1,0.9-1.7,0.8
	c-0.7-0.2-1.2-0.8-1.2-1.5V16.4l-9,28.4C40.1,45.5,39.5,45.9,38.9,45.9z"/>
</svg>
