<?xml version="1.0" encoding="utf-8"?>
<!-- Generator: Adobe Illustrator 18.1.0, SVG Export Plug-In . SVG Version: 6.00 Build 0)  -->
<svg version="1.1" id="Layer_1" xmlns="http://www.w3.org/2000/svg" xmlns:xlink="http://www.w3.org/1999/xlink" x="0px" y="0px"
	 viewBox="0 0 100 39.7" enable-background="new 0 0 100 39.7" xml:space="preserve">
<g>
	<path fill="#F16462" d="M89.2,38.3c-2.9,0-5.5-1.4-7.2-3.6c-1.6,2.2-4.2,3.6-7.2,3.6c-2.9,0-5.5-1.4-7.2-3.6
		c-1.6,2.2-4.2,3.6-7.2,3.6c-2.9,0-5.5-1.4-7.2-3.6c-1.6,2.2-4.2,3.6-7.2,3.6c-2.9,0-5.5-1.4-7.2-3.6c-1.6,2.2-4.2,3.6-7.2,3.6
		c-2.9,0-5.5-1.4-7.2-3.6c-1.6,2.2-4.2,3.6-7.2,3.6c-2.9,0-5.5-1.4-7.2-3.6C8.6,36.9,6,38.3,3,38.3c-1,0-1.8-0.8-1.8-1.8
		c0-1,0.8-1.8,1.8-1.8c3,0,5.4-2.4,5.4-5.4c0-1,0.8-1.8,1.8-1.8c1.5,0,2.6,1.9,1.1,3.4c4.8,6.7,11.5,3.3,11.5-1.6
		c0-1,0.8-1.8,1.8-1.8c1.5,0,2.6,1.9,1.1,3.4c4.8,6.7,11.5,3.3,11.5-1.6c0-1,0.8-1.8,1.8-1.8c1.5,0,2.6,1.9,1.1,3.4
		c4.8,6.7,11.5,3.3,11.5-1.6c0-1,0.8-1.8,1.8-1.8c1.5,0,2.6,1.9,1.1,3.4c4.8,6.7,11.5,3.3,11.5-1.6c0-1,0.8-1.8,1.8-1.8
		c1.5,0,2.6,1.9,1.1,3.4c4.8,6.7,11.5,3.3,11.5-1.6c0-1,0.8-1.8,1.8-1.8c1.5,0,2.6,1.9,1.1,3.4c0,0,0,0,0,0
		c4.8,6.7,11.5,3.3,11.5-1.6c0-1,0.8-1.8,1.8-1.8c1,0,1.8,0.8,1.8,1.8C98.2,34.3,94.2,38.3,89.2,38.3z"/>
	<path fill="#F16462" d="M96.4,22.5c-1,0-1.8-0.8-1.8-1.8c0-8.9-7.2-16.2-16.2-16.2c-1,0-1.8-0.8-1.8-1.8c0-1,0.8-1.8,1.8-1.8
		c10.9,0,19.8,8.9,19.8,19.8C98.2,21.7,97.4,22.5,96.4,22.5z"/>
	<path fill="#F16462" d="M77,22.5c-1,0-1.8-0.8-1.8-1.8C75.2,11.8,68,4.6,59,4.6c-4.1,0-8,1.5-11,4.3c-0.7,0.7-1.9,0.6-2.5-0.1
		c-0.7-0.7-0.6-1.9,0.1-2.5C49.3,2.9,54,1,59,1c10.9,0,19.8,8.9,19.8,19.8C78.8,21.7,78,22.5,77,22.5z"/>
	<path fill="#F16462" d="M69.8,22.5c-1.5,0-2.6-1.9-1.1-3.4c-4.8-6.7-11.5-3.3-11.5,1.6c0,1-0.8,1.8-1.8,1.8c-1,0-1.8-0.8-1.8-1.8
		c0-5,4-9,9-9c5,0,9,4,9,9C71.6,21.7,70.8,22.5,69.8,22.5z"/>
</g>
</svg>
