<?xml version="1.0" encoding="utf-8"?>
<!-- Generator: Adobe Illustrator 18.1.0, SVG Export Plug-In . SVG Version: 6.00 Build 0)  -->
<svg version="1.1" id="Layer_1" xmlns="http://www.w3.org/2000/svg" xmlns:xlink="http://www.w3.org/1999/xlink" x="0px" y="0px"
	 viewBox="0 0 65.9 45.9" enable-background="new 0 0 65.9 45.9" xml:space="preserve">
<g>
	<path fill="#F16462" d="M54.6,21.7H20.2c-0.8,0-1.4-0.6-1.4-1.4s0.6-1.4,1.4-1.4h34.4c4,0,7.2-3.2,7.2-7.2s-3.2-7.2-7.2-7.2
		c-0.8,0-1.4-0.6-1.4-1.4s0.6-1.4,1.4-1.4c5.5,0,10,4.5,10,10.1C64.6,17.1,60.1,21.7,54.6,21.7z"/>
	<path fill="#F16462" d="M54,27.4H3c-0.8,0-1.4-0.6-1.4-1.4c0-0.8,0.6-1.4,1.4-1.4h51c0.8,0,1.4,0.6,1.4,1.4
		C55.4,26.8,54.8,27.4,54,27.4z"/>
	<path fill="#F16462" d="M54.6,44.5c-0.8,0-1.4-0.6-1.4-1.4s0.6-1.4,1.4-1.4c2.4,0,4.3-1.9,4.3-4.2c0-2.4-1.9-4.2-4.3-4.2H12.7
		c-0.8,0-1.4-0.6-1.4-1.4c0-0.8,0.6-1.4,1.4-1.4h41.9c4,0,7.2,3.2,7.2,7.1C61.7,41.3,58.5,44.5,54.6,44.5z"/>
</g>
</svg>
