<?xml version="1.0" encoding="utf-8"?>
<!-- Generator: Adobe Illustrator 18.1.0, SVG Export Plug-In . SVG Version: 6.00 Build 0)  -->
<svg version="1.1" id="Layer_1" xmlns="http://www.w3.org/2000/svg" xmlns:xlink="http://www.w3.org/1999/xlink" x="0px" y="0px"
	 viewBox="0 0 65.8 43.8" enable-background="new 0 0 65.8 43.8" xml:space="preserve">
<g>
	<path fill="#F16462" d="M53.2,27.2c0.2-1.2-0.2-1.8-0.2-3C53,13.1,43.9,4,32.8,4c-11.1,0-20.2,9.1-20.2,20.2l0.1,1.4l-3.1,1.6v-3
		c0-12.6,10.3-22.9,22.9-22.9c12.6,0,22.9,10.3,22.9,22.9v3.5L53.2,27.2z"/>
	<path fill="#F16462" d="M45.2,34c-0.3,0-0.6-0.1-0.8-0.3l-20.2-16L4,33.7c-0.6,0.5-1.4,0.4-1.9-0.2c-0.5-0.6-0.4-1.4,0.2-1.9
		l21-16.7c0.5-0.4,1.2-0.4,1.7,0l21,16.7c0.6,0.5,0.7,1.3,0.2,1.9C46,33.8,45.6,34,45.2,34z"/>
	<path fill="#F16462" d="M45.8,42.3H19.4c-0.7,0-1.3-0.6-1.3-1.3s0.6-1.3,1.3-1.3h26.4c0.7,0,1.3,0.6,1.3,1.3S46.5,42.3,45.8,42.3z"
		/>
	<path fill="#F16462" d="M62.5,34c-0.3,0-0.5-0.1-0.8-0.2l-12.1-8.6l-6.8,4.8c-0.6,0.4-1.4,0.3-1.9-0.3c-0.4-0.6-0.3-1.4,0.3-1.9
		l7.5-5.4c0.5-0.3,1.1-0.3,1.6,0l12.9,9.2c0.6,0.4,0.7,1.3,0.3,1.9C63.3,33.8,62.9,34,62.5,34z"/>
</g>
</svg>
